<?xml version="1.0" encoding="UTF-8" standalone="no"?>
<!DOCTYPE svg PUBLIC "-//W3C//DTD SVG 1.1//EN"
 "http://www.w3.org/Graphics/SVG/1.1/DTD/svg11.dtd">
<!-- Generated by graphviz version 2.38.0 (20140413.2041)
 -->
<!-- Title: g Pages: 1 -->
<svg width="630pt" height="411pt"
 viewBox="0.00 0.00 629.50 411.00" xmlns="http://www.w3.org/2000/svg" xmlns:xlink="http://www.w3.org/1999/xlink">
<g id="graph0" class="graph" transform="scale(1 1) rotate(0) translate(4 407)">
<title>g</title>
<polygon fill="white" stroke="none" points="-4,4 -4,-407 625.5,-407 625.5,4 -4,4"/>
<!-- 0 -->
<g id="node1" class="node"><title>0</title>
<polygon fill="none" stroke="black" points="446.5,-403 197.5,-403 197.5,-235 446.5,-235 446.5,-403"/>
<text text-anchor="start" x="205.5" y="-389.4" font-family="Courier New" font-size="12.00"> &#160;&#160;0 LOAD_CONST &#160;&#160;&#160;&#160;&#160;&#160;&#160;&#160;&#160;5 (4)</text>
<text text-anchor="start" x="205.5" y="-376.4" font-family="Courier New" font-size="12.00"> &#160;&#160;3 STORE_FAST &#160;&#160;&#160;&#160;&#160;&#160;&#160;&#160;&#160;0 (i)</text>
<text text-anchor="start" x="205.5" y="-349.4" font-family="Courier New" font-size="12.00"># 4 i = 4</text>
<text text-anchor="start" x="205.5" y="-322.4" font-family="Courier New" font-size="12.00"> &#160;&#160;6 LOAD_FAST &#160;&#160;&#160;&#160;&#160;&#160;&#160;&#160;&#160;&#160;0 (i)</text>
<text text-anchor="start" x="205.5" y="-309.4" font-family="Courier New" font-size="12.00"> &#160;&#160;9 LOAD_CONST &#160;&#160;&#160;&#160;&#160;&#160;&#160;&#160;&#160;2 (4)</text>
<text text-anchor="start" x="205.5" y="-296.4" font-family="Courier New" font-size="12.00"> &#160;12 COMPARE_OP &#160;&#160;&#160;&#160;&#160;&#160;&#160;&#160;&#160;2 (==)</text>
<text text-anchor="start" x="205.5" y="-283.4" font-family="Courier New" font-size="12.00"> &#160;15 POP_JUMP_IF_FALSE &#160;&#160;&#160;30 </text>
<text text-anchor="start" x="205.5" y="-256.4" font-family="Courier New" font-size="12.00"># 5 if (i == 4):</text>
</g>
<!-- 18 -->
<g id="node2" class="node"><title>18</title>
<polygon fill="none" stroke="black" points="324,-199 0,-199 0,-72 324,-72 324,-199"/>
<text text-anchor="start" x="8" y="-185.4" font-family="Courier New" font-size="12.00"> &#160;18 LOAD_CONST &#160;&#160;&#160;&#160;&#160;&#160;&#160;&#160;&#160;3 (&#39;2 + 2 = %d&#39;)</text>
<text text-anchor="start" x="8" y="-172.4" font-family="Courier New" font-size="12.00"> &#160;21 LOAD_FAST &#160;&#160;&#160;&#160;&#160;&#160;&#160;&#160;&#160;&#160;0 (i)</text>
<text text-anchor="start" x="8" y="-159.4" font-family="Courier New" font-size="12.00"> &#160;24 BINARY_MODULO &#160;&#160;</text>
<text text-anchor="start" x="8" y="-146.4" font-family="Courier New" font-size="12.00"> &#160;25 PRINT_ITEM &#160;&#160;&#160;&#160;&#160;</text>
<text text-anchor="start" x="8" y="-119.4" font-family="Courier New" font-size="12.00"># 6 print(&#39;2 + 2 = %d&#39; % i)</text>
<text text-anchor="start" x="8" y="-92.4" font-family="Courier New" font-size="12.00"> &#160;26 PRINT_NEWLINE &#160;&#160;</text>
<text text-anchor="start" x="8" y="-79.4" font-family="Courier New" font-size="12.00"> &#160;27 JUMP_FORWARD &#160;&#160;&#160;&#160;&#160;&#160;&#160;5 (to 35)</text>
</g>
<!-- 0&#45;&gt;18 -->
<g id="edge2" class="edge"><title>0&#45;&gt;18</title>
<path fill="none" stroke="green" d="M260.75,-234.769C260.75,-234.769 260.75,-209.178 260.75,-209.178"/>
<polygon fill="green" stroke="green" points="264.25,-209.178 260.75,-199.178 257.25,-209.179 264.25,-209.178"/>
</g>
<!-- 30 -->
<g id="node3" class="node"><title>30</title>
<polygon fill="none" stroke="black" points="621.5,-179.5 342.5,-179.5 342.5,-91.5 621.5,-91.5 621.5,-179.5"/>
<text text-anchor="start" x="350.5" y="-165.9" font-family="Courier New" font-size="12.00"> &#160;30 LOAD_CONST &#160;&#160;&#160;&#160;&#160;&#160;&#160;&#160;&#160;4 (&#39;oops&#39;)</text>
<text text-anchor="start" x="350.5" y="-152.9" font-family="Courier New" font-size="12.00"> &#160;33 PRINT_ITEM &#160;&#160;&#160;&#160;&#160;</text>
<text text-anchor="start" x="350.5" y="-125.9" font-family="Courier New" font-size="12.00"># 8 print(&#39;oops&#39;)</text>
<text text-anchor="start" x="350.5" y="-98.9" font-family="Courier New" font-size="12.00"> &#160;34 PRINT_NEWLINE &#160;&#160;</text>
</g>
<!-- 0&#45;&gt;30 -->
<g id="edge1" class="edge"><title>0&#45;&gt;30</title>
<path fill="none" stroke="red" d="M394.5,-234.769C394.5,-234.769 394.5,-189.675 394.5,-189.675"/>
<polygon fill="red" stroke="red" points="398,-189.675 394.5,-179.675 391,-189.675 398,-189.675"/>
</g>
<!-- 35 -->
<g id="node4" class="node"><title>35</title>
<polygon fill="none" stroke="black" points="454,-36 190,-36 190,-0 454,-0 454,-36"/>
<text text-anchor="start" x="198" y="-21.4" font-family="Courier New" font-size="12.00"> &#160;35 LOAD_CONST &#160;&#160;&#160;&#160;&#160;&#160;&#160;&#160;&#160;0 (None)</text>
<text text-anchor="start" x="198" y="-8.4" font-family="Courier New" font-size="12.00"> &#160;38 RETURN_VALUE &#160;&#160;&#160;</text>
</g>
<!-- 18&#45;&gt;35 -->
<g id="edge3" class="edge"><title>18&#45;&gt;35</title>
<path fill="none" stroke="blue" d="M257,-71.9355C257,-71.9355 257,-46.0177 257,-46.0177"/>
<polygon fill="blue" stroke="blue" points="260.5,-46.0176 257,-36.0177 253.5,-46.0177 260.5,-46.0176"/>
</g>
<!-- 30&#45;&gt;35 -->
<g id="edge4" class="edge"><title>30&#45;&gt;35</title>
<path fill="none" stroke="blue" d="M398.25,-91.413C398.25,-91.413 398.25,-46.1812 398.25,-46.1812"/>
<polygon fill="blue" stroke="blue" points="401.75,-46.1812 398.25,-36.1812 394.75,-46.1812 401.75,-46.1812"/>
</g>
</g>
</svg>
